<?xml version="1.0" encoding="UTF-8" standalone="no"?>
<!-- Created with Inkscape (http://www.inkscape.org/) -->

<svg
   xmlns:dc="http://purl.org/dc/elements/1.1/"
   xmlns:cc="http://creativecommons.org/ns#"
   xmlns:rdf="http://www.w3.org/1999/02/22-rdf-syntax-ns#"
   xmlns:svg="http://www.w3.org/2000/svg"
   xmlns="http://www.w3.org/2000/svg"
   xmlns:sodipodi="http://sodipodi.sourceforge.net/DTD/sodipodi-0.dtd"
   xmlns:inkscape="http://www.inkscape.org/namespaces/inkscape"
   id="svg3004"
   version="1.1"
   inkscape:version="0.48.3.1 r9886"
   width="368.67996"
   height="300.68274"
   xml:space="preserve"
   sodipodi:docname="manuale1.pdf"><metadata
     id="metadata3010"><rdf:RDF><cc:Work
         rdf:about=""><dc:format>image/svg+xml</dc:format><dc:type
           rdf:resource="http://purl.org/dc/dcmitype/StillImage" /><dc:title></dc:title></cc:Work></rdf:RDF></metadata><defs
     id="defs3008"><clipPath
       clipPathUnits="userSpaceOnUse"
       id="clipPath3020"><path
         d="m -65,907 725,0 0,-972 -725,0 0,972 z"
         id="path3022"
         inkscape:connector-curvature="0" /></clipPath><clipPath
       clipPathUnits="userSpaceOnUse"
       id="clipPath3026"><path
         d="m 0,842.04 594.96,0 L 594.96,0 0,0 0,842.04 z"
         id="path3028"
         inkscape:connector-curvature="0" /></clipPath><clipPath
       clipPathUnits="userSpaceOnUse"
       id="clipPath3036"><path
         d="m 0.91,670.44 594.37,0 0,-398.95 -594.37,0 0,398.95 z"
         clip-rule="evenodd"
         id="path3038"
         inkscape:connector-curvature="0" /></clipPath><clipPath
       clipPathUnits="userSpaceOnUse"
       id="clipPath3042"><path
         d="m -65,907 725,0 0,-972 -725,0 0,972 z"
         id="path3044"
         inkscape:connector-curvature="0" /></clipPath><clipPath
       clipPathUnits="userSpaceOnUse"
       id="clipPath3048"><path
         d="m 0,842.04 594.96,0 L 594.96,0 0,0 0,842.04 z"
         id="path3050"
         inkscape:connector-curvature="0" /></clipPath></defs><sodipodi:namedview
     pagecolor="#ffffff"
     bordercolor="#666666"
     borderopacity="1"
     objecttolerance="10"
     gridtolerance="10"
     guidetolerance="10"
     inkscape:pageopacity="0"
     inkscape:pageshadow="2"
     inkscape:window-width="1680"
     inkscape:window-height="997"
     id="namedview3006"
     showgrid="false"
     fit-margin-top="0"
     fit-margin-left="0"
     fit-margin-right="0"
     fit-margin-bottom="0"
     inkscape:zoom="0.81140143"
     inkscape:cx="174.53933"
     inkscape:cy="124.7436"
     inkscape:window-x="0"
     inkscape:window-y="0"
     inkscape:window-maximized="1"
     inkscape:current-layer="g3012" /><g
     id="g3012"
     inkscape:groupmode="layer"
     inkscape:label="manuale1"
     transform="matrix(1.25,0,0,-1.25,-197.33567,800.784)"><g
       id="g3291"><path
         inkscape:connector-curvature="0"
         id="path3052"
         style="fill:#2b4291;fill-opacity:1;fill-rule:evenodd;stroke:none"
         d="m 297.048,498.784 46.966,33.744 0.009,-15.395 c -0.276,-11.885 -4.275,-29.233 -14.421,-41.69 l -32.554,23.341" /><path
         inkscape:connector-curvature="0"
         id="path3054"
         style="fill:#2b4291;fill-opacity:1;fill-rule:evenodd;stroke:none"
         d="m 297.03,498.79 -47.063,33.838 0.009,-15.338 c 0.292,-11.979 4.291,-29.327 14.437,-41.784 l 32.617,23.284" /><path
         inkscape:connector-curvature="0"
         id="path3056"
         style="fill:#d4d4d4;fill-opacity:1;fill-rule:evenodd;stroke:none"
         d="m 297.03,498.79 -47.063,33.729 0.188,0.297 93.625,0.109 0.201,-0.401 -46.951,-33.734" /><path
         inkscape:connector-curvature="0"
         id="path3058"
         style="fill:#e13f33;fill-opacity:1;fill-rule:evenodd;stroke:none"
         d="m 344.028,532.509 0,42.119 -94.061,0.016 0,-42.125 94.061,-0.01" /><path
         inkscape:connector-curvature="0"
         id="path3060"
         style="fill:#d4d4d4;fill-opacity:1;fill-rule:nonzero;stroke:none"
         d="m 170.077,555.509 c 4.655,2.799 10.696,1.291 13.493,-3.368 2.796,-4.658 1.289,-10.703 -3.367,-13.501 -4.655,-2.799 -10.696,-1.291 -13.492,3.367 -2.797,4.659 -1.29,10.704 3.366,13.502" /><path
         inkscape:connector-curvature="0"
         id="path3062"
         style="fill:#d4d4d4;fill-opacity:1;fill-rule:nonzero;stroke:none"
         d="m 163.456,530.868 c 4.297,2.583 9.873,1.191 12.455,-3.109 2.581,-4.3 1.19,-9.88 -3.108,-12.463 -4.297,-2.583 -9.873,-1.191 -12.455,3.109 -2.581,4.3 -1.19,9.88 3.108,12.463" /><path
         inkscape:connector-curvature="0"
         id="path3064"
         style="fill:#d4d4d4;fill-opacity:1;fill-rule:nonzero;stroke:none"
         d="m 161.906,506.343 c 3.94,2.368 9.051,1.092 11.417,-2.85 2.367,-3.942 1.091,-9.057 -2.848,-11.425 -3.939,-2.368 -9.051,-1.092 -11.417,2.85 -2.367,3.942 -1.091,9.057 2.848,11.425" /><path
         inkscape:connector-curvature="0"
         id="path3066"
         style="fill:#d4d4d4;fill-opacity:1;fill-rule:nonzero;stroke:none"
         d="m 164.213,484.336 c 3.581,2.152 8.228,0.992 10.379,-2.591 2.151,-3.583 0.992,-8.233 -2.589,-10.386 -3.581,-2.153 -8.228,-0.993 -10.379,2.591 -2.151,3.583 -0.992,8.233 2.589,10.386" /><path
         inkscape:connector-curvature="0"
         id="path3068"
         style="fill:#d4d4d4;fill-opacity:1;fill-rule:nonzero;stroke:none"
         d="m 169.592,463.694 c 3.223,1.938 7.405,0.894 9.341,-2.331 1.936,-3.225 0.893,-7.41 -2.33,-9.347 -3.223,-1.938 -7.405,-0.894 -9.341,2.331 -1.936,3.225 -0.893,7.41 2.33,9.347" /><path
         inkscape:connector-curvature="0"
         id="path3070"
         style="fill:#d4d4d4;fill-opacity:1;fill-rule:evenodd;stroke:none"
         d="M 329.593,475.506 297.03,498.79 264.413,475.506 c 8.359,-10.889 19.648,-19.643 32.705,-24.502 13.122,4.883 24.234,13.536 32.475,24.502" /><path
         inkscape:connector-curvature="0"
         id="path3072"
         style="fill:#d4d4d4;fill-opacity:1;fill-rule:nonzero;stroke:#d4d4d4;stroke-width:1;stroke-linecap:butt;stroke-linejoin:miter;stroke-miterlimit:3.86400008;stroke-opacity:1;stroke-dasharray:none"
         d="m 425.125,556.312 c 7.629,-17.057 11.938,-35.923 12.103,-55.777 l 15.08,0.011 -0.012,-1.668 -28.628,0.014 c -0.125,18.72 -3.987,36.029 -11.088,51.789 l 12.545,5.631 z" /><path
         inkscape:connector-curvature="0"
         id="path3074"
         style="fill:#2b4291;fill-opacity:1;fill-rule:evenodd;stroke:none"
         d="m 197.518,581.318 c 2.747,-2.679 5.013,-1.81 7.374,0.824 1.099,1.226 2.093,2.982 1.676,4.661 -0.346,1.434 -1.41,2.714 -2.636,3.814 l -6.393,5.731 c -1.166,1.045 -1.672,0.846 -2.771,-0.381 l -0.309,-0.303 -0.603,0.54 c 0.781,0.75 1.543,1.519 2.263,2.323 0.721,0.804 1.402,1.644 2.045,2.482 l 0.603,-0.54 -0.268,-0.34 c -1.136,-1.267 -1.297,-1.811 -0.131,-2.856 l 7.418,-6.65 c 1.106,-0.992 1.718,-2.048 2.142,-3.516 0.283,-0.979 0.142,-2.593 -0.266,-3.533 -0.423,-0.998 -1.29,-2.288 -2.01,-3.093 -1.641,-1.829 -3.886,-3.768 -6.541,-3.129 -1.355,0.308 -2.079,0.957 -3.084,1.858 l -7.238,6.488 c -1.568,1.406 -1.69,1.552 -3.521,-0.288 l -0.603,0.541 c 0.871,0.851 1.758,1.76 2.641,2.745 0.883,0.985 1.69,1.966 2.495,2.985 l 0.603,-0.541 c -1.629,-2.02 -1.471,-2.126 0.098,-3.532 l 7.016,-6.29" /><path
         inkscape:connector-curvature="0"
         id="path3076"
         style="fill:#2b4291;fill-opacity:1;fill-rule:evenodd;stroke:none"
         d="m 226.369,603.081 -8.118,10.685 c -0.948,1.247 -1.481,1.146 -2.793,0.15 l -0.36,-0.24 -0.49,0.645 c 0.909,0.589 1.801,1.199 2.661,1.853 0.86,0.653 1.687,1.349 2.477,2.051 l 0.49,-0.645 -0.328,-0.283 c -1.354,-1.029 -1.616,-1.533 -0.668,-2.78 l 9.457,-12.448 0.669,-0.746 -1.927,-0.989 -19.972,4.73 7.97,-10.491 c 0.948,-1.247 1.503,-1.13 2.858,-0.101 l 0.36,0.24 0.49,-0.645 c -0.887,-0.573 -1.78,-1.183 -2.64,-1.837 -0.86,-0.653 -1.687,-1.349 -2.498,-2.067 l -0.49,0.645 0.327,0.283 c 1.312,0.996 1.552,1.483 0.605,2.73 l -8.216,10.815 c -0.948,1.247 -1.439,1.179 -2.659,0.286 l -0.301,-0.229 -0.49,0.645 c 0.673,0.409 1.307,0.823 1.952,1.313 0.624,0.474 1.193,0.974 1.767,1.512 l 19.867,-5.082" /><path
         inkscape:connector-curvature="0"
         id="path3078"
         style="fill:#2b4291;fill-opacity:1;fill-rule:evenodd;stroke:none"
         d="m 237.149,609.929 c 1.019,-1.843 1.087,-2.022 3.421,-0.885 l 0.392,-0.709 c -1.174,-0.556 -2.31,-1.123 -3.468,-1.763 -1.158,-0.641 -2.242,-1.302 -3.266,-1.961 l -0.392,0.709 c 2.203,1.372 2.088,1.525 1.068,3.368 l -5.997,10.845 c -1.019,1.843 -1.087,2.021 -3.421,0.885 l -0.392,0.709 c 1.103,0.517 2.239,1.084 3.397,1.724 1.158,0.64 2.242,1.301 3.337,2 l 0.392,-0.709 c -2.203,-1.373 -2.088,-1.525 -1.068,-3.368 l 5.997,-10.845" /><path
         inkscape:connector-curvature="0"
         id="path3080"
         style="fill:#2b4291;fill-opacity:1;fill-rule:evenodd;stroke:none"
         d="m 239.143,625.649 c -1.089,1.137 -0.928,1.317 -2.388,0.971 l -0.487,-0.164 -0.298,0.753 c 1.134,0.362 2.259,0.749 3.388,1.196 1.13,0.447 2.215,0.934 3.29,1.447 l 0.298,-0.753 c -2.43,-0.904 -2.091,-1.321 -1.716,-1.754 l 2.057,-2.409 7.841,-8.366 0.049,9.486 -0.122,3.465 c -0.055,1.604 0.287,3.017 -2.686,1.724 l -0.299,0.753 c 0.934,0.283 1.833,0.58 2.761,0.948 0.929,0.367 1.788,0.765 2.662,1.199 l 0.298,-0.754 c -1.646,-0.535 -1.329,-1.484 -1.343,-2.767 l -0.109,-11.978 0.055,-5.35 -1.255,-0.497 -1.198,1.414 -1.783,1.936 -9.015,9.5" /><path
         inkscape:connector-curvature="0"
         id="path3082"
         style="fill:#2b4291;fill-opacity:1;fill-rule:evenodd;stroke:none"
         d="m 265.273,621.467 c 0.225,-0.946 0.401,-1.57 0.668,-2.228 1.004,0.1 2.343,0.418 3.604,0.717 1.419,0.337 2.851,0.733 4.124,1.451 0.037,0.426 0.056,0.93 -0.003,1.415 l -0.107,1.501 0.867,0.206 c 0.026,-0.577 0.043,-1.35 0.242,-2.19 l 0.518,-2.181 c -0.94,-0.362 -2.707,-0.754 -4.329,-1.167 -1.569,-0.289 -3.158,-0.611 -4.76,-0.991 -1.602,-0.381 -3.14,-0.802 -4.724,-1.261 l -0.187,0.788 c 1.301,0.364 2.116,1.141 1.698,2.901 l -2.864,12.057 c -0.486,2.049 -0.504,2.24 -3.057,1.772 l -0.187,0.788 c 1.621,0.302 3.21,0.624 4.838,1.011 1.629,0.386 3.219,0.82 4.777,1.272 1.661,0.367 3.467,0.824 4.392,0.905 -0.084,-0.936 0.011,-1.801 0.184,-2.648 0.132,-0.552 0.159,-1.017 0.29,-1.569 l -0.815,-0.193 c -0.269,1.018 -0.602,1.716 -0.979,2.487 -1.354,0.094 -2.706,-0.171 -4.02,-0.483 -1.156,-0.275 -2.391,-0.568 -3.226,-0.905 0.051,-0.682 0.168,-1.292 0.386,-2.212 l 1.167,-4.912 c 5.739,1.308 6.182,1.08 5.597,3.66 l 0.866,0.206 1.442,-6.068 -0.867,-0.206 c -0.705,2.969 -0.852,2.767 -6.739,1.147 l 1.204,-5.07" /><path
         inkscape:connector-curvature="0"
         id="path3084"
         style="fill:#2b4291;fill-opacity:1;fill-rule:evenodd;stroke:none"
         d="m 281.161,636.606 c -0.151,2.101 -0.138,2.291 -2.733,2.239 l -0.058,0.808 c 1.514,0.028 3.08,0.087 4.668,0.201 1.589,0.115 3.147,0.281 4.704,0.475 3.702,0.456 5.571,-1.44 5.734,-3.702 0.212,-2.935 -2.301,-4.876 -4.876,-5.576 l 6.687,-7.53 c 0.468,-0.481 1.045,-0.602 1.589,-0.644 l 0.059,-0.808 c -0.599,0.038 -1.222,0.048 -1.841,0.003 -0.62,-0.044 -1.208,-0.141 -1.822,-0.267 -0.471,0.535 -0.802,0.998 -1.212,1.429 l -7.004,7.779 0.079,0.411 c 0.839,0.007 1.671,0.094 2.47,0.287 1.861,0.459 3.373,2.029 3.229,4.022 -0.21,2.908 -2.426,3.615 -4.419,3.471 -0.943,-0.068 -1.956,-0.276 -2.668,-0.544 -0.128,-0.469 -0.088,-1.035 -0.027,-1.87 l 0.89,-12.36 c 0.152,-2.101 0.138,-2.291 2.733,-2.24 l 0.059,-0.808 c -1.299,-0.012 -2.569,-0.049 -3.888,-0.145 -1.32,-0.095 -2.581,-0.24 -3.788,-0.408 l -0.058,0.808 c 2.576,0.321 2.535,0.508 2.384,2.608 l -0.891,12.361" /><path
         inkscape:connector-curvature="0"
         id="path3086"
         style="fill:#2b4291;fill-opacity:1;fill-rule:evenodd;stroke:none"
         d="m 311.539,635.381 c 0.077,1.023 0.13,1.723 -0.106,2.175 -0.641,1.186 -2.52,1.762 -3.785,1.858 -2.208,0.168 -4.209,-1.224 -4.385,-3.539 -0.444,-5.842 10.639,-1.811 10.126,-8.568 -0.35,-4.604 -4.637,-6.498 -8.648,-6.194 -1.616,0.123 -3.093,0.641 -4.526,1.373 0.185,1.015 0.337,2.303 0.444,3.351 l 0.057,0.754 0.916,-0.069 -0.097,-1.266 c -0.045,-0.592 -0.03,-1.108 0.271,-1.428 1.005,-1.025 2.706,-1.452 4.079,-1.556 2.423,-0.184 4.9,1.063 5.103,3.728 0.495,6.515 -10.629,1.241 -10.033,9.076 0.28,3.688 3.581,5.793 7.054,5.529 1.831,-0.139 3.482,-0.86 5.129,-1.636 -0.113,-0.424 -0.254,-0.847 -0.314,-1.275 -0.115,-0.804 -0.282,-1.577 -0.37,-2.382 l -0.915,0.069" /><path
         inkscape:connector-curvature="0"
         id="path3088"
         style="fill:#2b4291;fill-opacity:1;fill-rule:evenodd;stroke:none"
         d="m 322.585,622.395 c -0.404,-2.067 -0.467,-2.247 2.051,-2.877 l -0.156,-0.795 c -1.256,0.328 -2.491,0.625 -3.789,0.879 -1.299,0.254 -2.555,0.444 -3.763,0.598 l 0.156,0.795 c 2.57,-0.365 2.579,-0.174 2.984,1.892 l 2.378,12.163 c 0.404,2.067 0.467,2.247 -2.051,2.877 l 0.156,0.795 c 1.177,-0.313 2.411,-0.609 3.71,-0.863 1.298,-0.254 2.554,-0.445 3.842,-0.614 l -0.156,-0.795 c -2.57,0.365 -2.579,0.175 -2.984,-1.892 l -2.378,-12.163" /><path
         inkscape:connector-curvature="0"
         id="path3090"
         style="fill:#2b4291;fill-opacity:1;fill-rule:evenodd;stroke:none"
         d="m 339.121,629.98 c 0.298,0.982 0.57,1.802 0.748,2.597 l -3.989,1.181 c -0.547,0.152 -0.88,0.178 -1.152,-0.472 -0.307,-0.581 -0.681,-1.196 -0.936,-1.879 l -0.769,0.255 c 0.161,0.487 0.314,0.948 0.45,1.443 0.272,0.906 0.544,1.811 0.782,2.785 2.409,-0.885 4.826,-1.744 7.338,-2.577 2.485,-0.824 4.937,-1.581 7.448,-2.328 -0.391,-0.923 -0.714,-1.811 -1.038,-2.7 -0.187,-0.478 -0.34,-0.94 -0.501,-1.426 l -0.769,0.255 c 0.204,0.7 0.271,1.417 0.373,2.066 0.169,0.684 -0.113,0.862 -0.642,1.067 l -3.956,1.454 c -0.331,-0.743 -0.603,-1.563 -0.952,-2.529 l -3.639,-10.968 c -0.663,-1.999 -0.748,-2.17 1.67,-3.114 l -0.255,-0.769 c -1.205,0.485 -2.392,0.936 -3.648,1.353 -1.256,0.416 -2.477,0.764 -3.656,1.07 l 0.255,0.769 c 2.503,-0.688 2.537,-0.5 3.2,1.499 l 3.638,10.968" /><path
         inkscape:connector-curvature="0"
         id="path3092"
         style="fill:#2b4291;fill-opacity:1;fill-rule:evenodd;stroke:none"
         d="m 378.321,591.991 c -4.037,3.504 -2.471,8.687 0.626,12.255 2.903,3.344 6.655,4.414 10.203,1.335 3.793,-3.292 3.272,-7.559 -0.232,-11.596 -3.257,-3.752 -6.996,-4.725 -10.597,-1.994 z m 11.916,14.183 c -4.678,4.167 -10.445,3.453 -14.056,-0.707 -4.034,-4.649 -3.412,-10.194 0.727,-13.787 4.466,-3.875 10.935,-3.341 14.74,1.043 3.929,4.527 2.953,9.664 -1.411,13.451" /><path
         inkscape:connector-curvature="0"
         id="path3094"
         style="fill:#2b4291;fill-opacity:1;fill-rule:evenodd;stroke:none"
         d="m 400.269,591.269 c 1.611,1.357 1.773,1.458 0.207,3.527 l 0.62,0.522 c 0.999,-1.312 2.001,-2.586 3.079,-3.866 1.078,-1.281 2.18,-2.506 3.286,-3.693 1.074,-1.319 2.295,-2.727 2.783,-3.516 -0.873,-0.347 -1.603,-0.821 -2.282,-1.356 -0.433,-0.366 -0.837,-0.599 -1.27,-0.964 l -0.54,0.64 c 0.789,0.699 1.263,1.31 1.781,1.993 -0.525,1.253 -1.37,2.341 -2.24,3.373 -0.765,0.909 -1.582,1.88 -2.259,2.475 -0.404,-0.234 -0.831,-0.523 -1.43,-1.027 l -4.234,-3.565 c 3.75,-4.538 3.745,-5.036 5.787,-3.352 l 0.574,-0.682 -4.772,-4.017 -0.573,0.682 c 2.334,1.965 2.088,2.005 -2.007,6.534 l -4.338,-3.652 c -1.611,-1.356 -1.773,-1.457 -0.207,-3.527 l -0.619,-0.522 c -0.773,1.044 -1.549,2.049 -2.401,3.061 -0.852,1.012 -1.711,1.948 -2.555,2.826 l 0.619,0.521 c 1.773,-1.896 1.9,-1.753 3.511,-0.397 l 9.48,7.982" /><path
         inkscape:connector-curvature="0"
         id="path3096"
         style="fill:#2b4291;fill-opacity:1;fill-rule:evenodd;stroke:none"
         d="m 210.415,422.607 c 0,1.405 0.039,2.42 0.156,3.318 1.757,0.078 3.474,0.235 5.192,0.235 6.714,0 11.788,-3.163 11.788,-11.399 0,-7.144 -3.357,-12.682 -13.311,-12.414 -1.405,0.039 -2.576,0.117 -3.669,0.274 -0.156,1.014 -0.156,2.186 -0.156,3.318 l 0,16.668 z m -3.676,-18.464 c 0,-1.679 -0.663,-2.064 -2.067,-2.333 l 0,-1.15 c 1.716,0.115 3.436,0.187 5.195,0.187 1.758,0 3.475,-0.072 5.193,-0.187 9.368,-0.624 16.605,5.864 16.605,15.272 0,7.573 -5.949,12.056 -13.209,11.978 -2.498,-0.117 -4.996,-0.187 -7.573,-0.187 -2.58,0 -5.08,0.07 -7.576,0.186 l 0,-1.205 c 3.081,-0.039 3.432,-0.272 3.432,-3.941 l 0,-18.62" /><path
         inkscape:connector-curvature="0"
         id="path3098"
         style="fill:#2b4291;fill-opacity:1;fill-rule:evenodd;stroke:none"
         d="m 243.664,409.648 c -0.233,-5.524 2.887,-7.119 7.999,-7.119 2.38,0 5.228,0.622 6.633,2.684 1.21,1.751 1.561,4.124 1.561,6.497 l 0,12.372 c 0,2.256 -0.702,2.606 -3.083,2.606 l -0.624,0.04 0,1.175 c 1.561,-0.117 3.121,-0.175 4.686,-0.175 1.563,0 3.122,0.058 4.644,0.176 l 0,-1.176 -0.624,-0.04 c -2.457,0 -3.198,-0.35 -3.198,-2.606 l 0,-14.356 c 0,-2.14 -0.548,-3.812 -1.723,-5.68 -0.78,-1.245 -2.653,-2.652 -4.058,-3.121 -1.483,-0.509 -3.707,-0.822 -5.268,-0.822 -3.55,0 -7.799,0.548 -9.662,4.021 -0.971,1.751 -0.971,3.151 -0.971,5.096 l 0,14.006 c 0,3.034 0.039,3.307 -3.705,3.502 l 0,1.175 c 1.755,-0.117 3.588,-0.175 5.491,-0.175 1.902,0 3.736,0.058 5.609,0.176 l 0,-1.176 c -3.746,-0.195 -3.707,-0.468 -3.707,-3.502 l 0,-13.578" /><path
         inkscape:connector-curvature="0"
         id="path3100"
         style="fill:#2b4291;fill-opacity:1;fill-rule:evenodd;stroke:none"
         d="m 295.069,404.723 0,19.356 c 0,2.259 -0.703,2.609 -3.082,2.609 l -0.624,0.04 0,1.176 c 1.56,-0.118 3.121,-0.196 4.685,-0.196 1.563,0 3.123,0.078 4.644,0.196 l 0,-1.176 -0.624,-0.04 c -2.457,0 -3.198,-0.35 -3.198,-2.609 l 0,-22.551 0.117,-1.447 -3.089,0.546 -18.841,22.868 0,-19.005 c 0,-2.259 0.742,-2.61 3.199,-2.61 l 0.624,-0.039 0,-1.175 c -1.521,0.117 -3.081,0.175 -4.645,0.175 -1.563,0 -3.123,-0.058 -4.683,-0.175 l 0,1.175 0.624,0.039 c 2.379,0 3.081,0.351 3.081,2.61 l 0,19.589 c 0,2.259 -0.624,2.609 -2.808,2.649 l -0.546,0 0,1.175 c 1.131,-0.117 2.223,-0.175 3.393,-0.175 1.135,0 2.23,0.058 3.361,0.176 l 18.412,-23.181" /><path
         inkscape:connector-curvature="0"
         id="path3102"
         style="fill:#2b4291;fill-opacity:1;fill-rule:evenodd;stroke:none"
         d="m 312.711,422.607 c 0,1.405 0.039,2.42 0.156,3.318 1.757,0.078 3.475,0.235 5.192,0.235 6.714,0 11.789,-3.163 11.789,-11.399 0,-7.144 -3.357,-12.682 -13.311,-12.414 -1.405,0.039 -2.577,0.117 -3.67,0.274 -0.156,1.014 -0.156,2.186 -0.156,3.318 l 0,16.668 z m -3.675,-18.464 c 0,-1.679 -0.663,-2.064 -2.067,-2.333 l 0,-1.15 c 1.716,0.115 3.435,0.187 5.195,0.187 1.757,0 3.475,-0.072 5.192,-0.187 9.369,-0.624 16.605,5.864 16.605,15.272 0,7.573 -5.948,12.056 -13.209,11.978 -2.498,-0.117 -4.996,-0.187 -7.572,-0.187 -2.58,0 -5.08,0.07 -7.576,0.186 l 0,-1.205 c 3.081,-0.039 3.432,-0.272 3.432,-3.941 l 0,-18.62" /><path
         inkscape:connector-curvature="0"
         id="path3104"
         style="fill:#2b4291;fill-opacity:1;fill-rule:evenodd;stroke:none"
         d="m 346.398,406.013 c 0,-1.403 0.039,-2.338 0.194,-3.352 1.442,-0.195 3.429,-0.195 5.298,-0.195 2.104,0 4.246,0.078 6.266,0.663 0.191,0.585 0.383,1.286 0.459,1.988 l 0.345,2.143 1.287,0 c -0.156,-0.818 -0.39,-1.909 -0.39,-3.157 l 0,-3.242 c -1.433,-0.195 -4.032,-0.156 -6.448,-0.195 -2.298,0.117 -4.635,0.175 -7.011,0.175 -2.368,0 -4.663,-0.058 -7.042,-0.175 l 0,1.174 c 1.95,0.078 3.354,0.899 3.354,3.511 l 0,17.874 c 0,3.035 0.039,3.309 -3.705,3.504 l 0,1.174 c 2.379,-0.117 4.714,-0.175 7.121,-0.175 2.414,0 4.79,0.058 7.128,0.176 2.454,-0.039 5.131,0 6.447,-0.196 -0.429,-1.292 -0.585,-2.539 -0.624,-3.783 0,-0.817 -0.117,-1.478 -0.117,-2.294 l -1.187,0 c -0.039,1.516 -0.273,2.605 -0.546,3.811 -1.87,0.583 -3.856,0.661 -5.804,0.661 -1.714,0 -3.545,0 -4.831,-0.195 -0.155,-0.972 -0.194,-1.866 -0.194,-3.227 l 0,-7.273 c 8.492,-0.078 9.037,-0.546 9.076,3.267 l 1.286,0 0,-8.998 -1.286,0 c 0,4.405 -0.272,4.171 -9.076,3.859 l 0,-7.523" /><path
         inkscape:connector-curvature="0"
         id="path3106"
         style="fill:#2b4291;fill-opacity:1;fill-rule:evenodd;stroke:none"
         d="m 373.346,406.013 c 0,-1.403 0.039,-2.338 0.195,-3.352 1.442,-0.195 3.428,-0.195 5.298,-0.195 2.104,0 4.246,0.078 6.265,0.663 0.192,0.585 0.383,1.286 0.46,1.988 l 0.345,2.143 1.287,0 c -0.156,-0.818 -0.39,-1.909 -0.39,-3.157 l 0,-3.242 c -1.433,-0.195 -4.032,-0.156 -6.448,-0.195 -2.298,0.117 -4.635,0.175 -7.012,0.175 -2.367,0 -4.662,-0.058 -7.041,-0.175 l 0,1.174 c 1.95,0.078 3.354,0.899 3.354,3.511 l 0,17.874 c 0,3.035 0.039,3.309 -3.705,3.504 l 0,1.174 c 2.379,-0.117 4.714,-0.175 7.121,-0.175 2.414,0 4.79,0.058 7.127,0.176 2.455,-0.039 5.132,0 6.448,-0.196 -0.429,-1.292 -0.585,-2.539 -0.624,-3.783 0,-0.817 -0.117,-1.478 -0.117,-2.294 l -1.188,0 c -0.039,1.516 -0.272,2.605 -0.545,3.811 -1.87,0.583 -3.857,0.661 -5.804,0.661 -1.714,0 -3.545,0 -4.831,-0.195 -0.156,-0.972 -0.195,-1.866 -0.195,-3.227 l 0,-7.273 c 8.493,-0.078 9.038,-0.546 9.077,3.267 l 1.285,0 0,-8.998 -1.285,0 c 0,4.405 -0.273,4.171 -9.077,3.859 l 0,-7.523" /><path
         inkscape:connector-curvature="0"
         id="path3108"
         style="fill:#f7f300;fill-opacity:1;fill-rule:evenodd;stroke:none"
         d="m 297.103,540.572 -0.082,0 c -18.294,0 -28.101,-4.276 -28.101,-4.276 l -14.846,24.01 c 0,0 7.171,1.129 9.444,-8.672 0.245,3.835 2.592,5.344 4.623,4.021 4.083,-3.437 0.683,-7.508 0.683,-7.508 0,0 -0.447,3.686 -2.664,2.021 -1.243,-0.901 -0.739,-2.016 -0.739,-2.016 0,0 0.341,-1.157 1.769,-2.424 1.176,-1.09 8.532,-0.49 10.57,4.253 0.753,2.733 0.186,5.312 -0.963,5.94 -1.149,0.627 -1.915,-0.332 -2.052,-0.57 -0.138,-0.238 -0.068,-1.157 -0.068,-1.157 0,0 -1.145,0.631 -0.928,1.921 0.043,0.26 -0.719,-0.2 -0.868,-0.237 -0.833,-0.208 -1.895,0.445 -1.895,0.445 0,0 0.608,1.074 1.437,1.298 0.148,0.04 1.037,0.009 0.873,0.215 -0.816,1.022 -0.123,2.13 -0.123,2.13 0,0 0.386,-0.838 0.622,-0.979 0.236,-0.14 1.371,-0.607 2.07,0.5 0.699,1.108 -0.32,1.982 -0.558,2.12 -0.238,0.137 -1.157,0.068 -1.157,0.068 0,0 0.632,1.144 1.921,0.927 0.26,-0.044 -0.198,0.719 -0.235,0.868 -0.207,0.833 0.354,1.87 0.354,1.87 0,0 1.039,-0.654 1.263,-1.483 0.04,-0.148 0.01,-1.037 0.216,-0.873 1.021,0.817 2.13,0.125 2.13,0.125 0,0 -0.838,-0.387 -0.978,-0.623 -0.141,-0.236 -0.607,-1.495 0.542,-2.123 1.149,-0.628 1.915,0.332 2.052,0.569 0.138,0.238 0.068,1.158 0.068,1.158 0,0 1.145,-0.632 0.929,-1.921 -0.044,-0.26 0.718,0.199 0.867,0.236 0.833,0.208 1.895,-0.444 1.895,-0.444 0,0 -0.612,-1.108 -1.441,-1.331 -0.148,-0.04 -1.037,-0.009 -0.873,-0.215 0.816,-1.022 0.123,-2.13 0.123,-2.13 0,0 -0.386,0.837 -0.622,0.978 -0.236,0.141 -1.371,0.607 -2.07,-0.5 -0.699,-1.107 -0.142,-3.436 2.119,-5.688 3.71,-2.864 11.046,-0.763 11.437,1.408 0.573,1.821 0.27,2.989 0.27,2.989 0,0 -0.142,1.215 -1.671,1.348 -2.758,0.286 -1.245,-3.104 -1.245,-3.104 0,0 -5.01,1.74 -3.278,6.789 1.061,2.179 3.849,2.094 6.033,-1.068 -3.095,9.573 3.123,12.332 3.123,12.332 l 0.003,0 c 0,0 6.218,-2.759 3.124,-12.332 2.183,3.162 4.972,3.247 6.032,1.068 1.732,-5.049 -3.278,-6.789 -3.278,-6.789 0,0 1.514,3.39 -1.244,3.104 -1.529,-0.133 -1.671,-1.348 -1.671,-1.348 0,0 -0.303,-1.168 0.269,-2.989 0.392,-2.171 7.744,-4.272 11.455,-1.408 2.261,2.252 2.801,4.581 2.102,5.688 -0.699,1.107 -1.835,0.641 -2.07,0.5 -0.236,-0.141 -0.622,-0.978 -0.622,-0.978 0,0 -0.694,1.108 0.122,2.13 0.165,0.206 -0.725,0.175 -0.873,0.215 -0.829,0.223 -1.44,1.331 -1.44,1.331 0,0 1.061,0.652 1.894,0.444 0.149,-0.037 0.911,-0.496 0.868,-0.236 -0.216,1.289 0.928,1.921 0.928,1.921 0,0 -0.07,-0.92 0.068,-1.158 0.137,-0.237 0.903,-1.197 2.052,-0.569 1.149,0.627 0.683,1.887 0.543,2.123 -0.141,0.236 -0.978,0.623 -0.978,0.623 0,0 1.109,0.692 2.13,-0.125 0.205,-0.164 0.176,0.725 0.216,0.873 0.224,0.829 1.263,1.483 1.263,1.483 0,0 0.561,-1.037 0.354,-1.87 -0.037,-0.149 -0.496,-0.912 -0.236,-0.868 1.289,0.217 1.922,-0.927 1.922,-0.927 0,0 -0.92,0.069 -1.158,-0.068 -0.237,-0.138 -1.257,-1.012 -0.558,-2.12 0.699,-1.107 1.835,-0.64 2.07,-0.5 0.236,0.141 0.622,0.979 0.622,0.979 0,0 0.694,-1.108 -0.122,-2.13 -0.165,-0.206 0.725,-0.175 0.873,-0.215 0.829,-0.224 1.436,-1.298 1.436,-1.298 0,0 -1.062,-0.653 -1.895,-0.445 -0.149,0.037 -0.911,0.497 -0.867,0.237 0.216,-1.29 -0.929,-1.921 -0.929,-1.921 0,0 0.07,0.919 -0.068,1.157 -0.137,0.238 -0.903,1.197 -2.052,0.57 -1.149,-0.628 -1.715,-3.207 -0.962,-5.94 2.037,-4.743 9.393,-5.343 10.569,-4.253 1.428,1.267 1.77,2.424 1.77,2.424 0,0 0.503,1.115 -0.739,2.016 -2.218,1.665 -2.665,-2.021 -2.665,-2.021 0,0 -3.4,4.071 0.684,7.508 2.03,1.323 4.377,-0.186 4.622,-4.021 2.273,9.801 9.444,8.672 9.444,8.672 l -14.846,-24.01 c 0,0 -9.844,4.276 -28.138,4.276" /><path
         inkscape:connector-curvature="0"
         id="path3110"
         style="fill:#e13f33;fill-opacity:1;fill-rule:evenodd;stroke:none"
         d="m 280.904,544.035 c -0.187,1.062 1.187,2.191 3.069,2.523 1.882,0.331 3.559,-0.261 3.746,-1.323 0.187,-1.061 -1.187,-2.191 -3.069,-2.522 -1.882,-0.331 -3.559,0.261 -3.746,1.322" /><path
         inkscape:connector-curvature="0"
         id="path3112"
         style="fill:#e13f33;fill-opacity:1;fill-rule:evenodd;stroke:none"
         d="m 313.306,544.001 c 0.187,1.062 -1.187,2.191 -3.069,2.523 -1.882,0.331 -3.559,-0.261 -3.746,-1.322 -0.187,-1.062 1.187,-2.191 3.069,-2.523 1.882,-0.331 3.559,0.261 3.746,1.322" /><path
         inkscape:connector-curvature="0"
         id="path3114"
         style="fill:#2b4291;fill-opacity:1;fill-rule:evenodd;stroke:none"
         d="m 318.341,543.065 4.215,0.71 2.883,-3.106 -4.214,-0.709 -2.884,3.105" /><path
         inkscape:connector-curvature="0"
         id="path3116"
         style="fill:#2b4291;fill-opacity:1;fill-rule:evenodd;stroke:none"
         d="m 275.91,542.976 -4.215,0.71 -2.883,-3.105 4.214,-0.71 2.884,3.105" /><path
         inkscape:connector-curvature="0"
         id="path3118"
         style="fill:#2b4291;fill-opacity:1;fill-rule:evenodd;stroke:none"
         d="m 293.011,547.391 8.163,0 0,-3.993 -8.163,0 0,3.993 z" /><path
         inkscape:connector-curvature="0"
         id="path3120"
         style="fill:#f7f300;fill-opacity:1;fill-rule:evenodd;stroke:none"
         d="m 267.103,545.627 c 0.503,0.323 0.65,0.992 0.327,1.495 -0.323,0.504 -0.992,0.65 -1.495,0.328 l -3.224,-2.067 c -0.503,-0.323 -0.65,-0.992 -0.327,-1.495 0.322,-0.503 0.992,-0.65 1.495,-0.327 l 3.224,2.066" /><path
         inkscape:connector-curvature="0"
         id="path3122"
         style="fill:#f7f300;fill-opacity:1;fill-rule:evenodd;stroke:none"
         d="m 327.062,545.509 c -0.504,0.322 -0.65,0.992 -0.327,1.495 0.322,0.503 0.992,0.65 1.495,0.327 l 3.224,-2.067 c 0.503,-0.322 0.649,-0.992 0.327,-1.495 -0.323,-0.503 -0.992,-0.649 -1.495,-0.327 l -3.224,2.067" /><path
         inkscape:connector-curvature="0"
         id="path3124"
         style="fill:#f7f300;fill-opacity:1;fill-rule:evenodd;stroke:none"
         d="m 300.179,551.709 c 0.598,0 1.082,0.484 1.083,1.082 0,0.598 -0.485,1.082 -1.082,1.082 l -6.161,0.002 c -0.597,0 -1.082,-0.484 -1.082,-1.082 -0.001,-0.598 0.484,-1.082 1.081,-1.083 l 6.161,-0.001" /><path
         inkscape:connector-curvature="0"
         id="path3126"
         style="fill:#2b4291;fill-opacity:1;fill-rule:evenodd;stroke:none"
         d="m 363.514,620.291 c 1.536,1.025 2.966,1.578 0.016,2.93 l 0.362,0.724 c 0.834,-0.507 1.663,-0.966 2.557,-1.413 0.895,-0.446 1.759,-0.832 2.666,-1.194 l -0.362,-0.725 c -1.499,0.869 -2.407,0.08 -4.335,-1.123 0,0 -5.197,-3.026 -6.3,-3.909 -0.603,-0.482 -0.952,-1.06 -1.241,-1.638 l -1.612,-3.229 c -0.939,-1.88 -1.047,-2.037 1.211,-3.315 l -0.361,-0.724 c -1.124,0.651 -2.24,1.255 -3.423,1.845 -1.182,0.591 -2.336,1.121 -3.459,1.591 l 0.362,0.725 c 2.379,-1.038 2.439,-0.857 3.377,1.022 l 1.769,3.543 c 0.096,0.192 0.241,0.481 0.252,0.807 l -0.372,6.507 -0.241,3.347 c -0.234,1.631 0.079,1.47 -1.153,2.327 l -0.447,0.254 0.362,0.724 c 1.026,-0.603 2.071,-1.17 3.158,-1.713 1.087,-0.543 2.168,-1.037 3.267,-1.495 l -0.362,-0.725 c -2.295,1.206 -2.321,0.61 -2.393,0.043 l 0.056,-1.099 0.368,-7.845 4.449,2.685 1.829,1.073" /></g></g></svg>