<?xml version="1.0" encoding="UTF-8" standalone="no"?>
<!-- Created with Inkscape (http://www.inkscape.org/) -->

<svg
   xmlns:dc="http://purl.org/dc/elements/1.1/"
   xmlns:cc="http://creativecommons.org/ns#"
   xmlns:rdf="http://www.w3.org/1999/02/22-rdf-syntax-ns#"
   xmlns:svg="http://www.w3.org/2000/svg"
   xmlns="http://www.w3.org/2000/svg"
   xmlns:sodipodi="http://sodipodi.sourceforge.net/DTD/sodipodi-0.dtd"
   xmlns:inkscape="http://www.inkscape.org/namespaces/inkscape"
   sodipodi:docname="greymap2.svg"
   inkscape:version="0.48.3.1 r9886"
   version="1.1"
   id="svg2"
   height="229.306"
   width="263.80484">
  <sodipodi:namedview
     id="base"
     pagecolor="#ffffff"
     bordercolor="#666666"
     borderopacity="1.0"
     inkscape:pageopacity="0.0"
     inkscape:pageshadow="2"
     inkscape:zoom="1.4142136"
     inkscape:cx="2.17655"
     inkscape:cy="180.97877"
     inkscape:document-units="px"
     inkscape:current-layer="layer1"
     showgrid="true"
     inkscape:window-width="1537"
     inkscape:window-height="927"
     inkscape:window-x="63"
     inkscape:window-y="35"
     inkscape:window-maximized="0"
     fit-margin-top="0"
     fit-margin-left="0"
     fit-margin-right="0"
     fit-margin-bottom="0"
     showguides="true"
     inkscape:guide-bbox="true">
    <inkscape:grid
       snapvisiblegridlinesonly="true"
       enabled="true"
       visible="true"
       empspacing="2"
       id="grid2985"
       type="xygrid"
       originx="-180px"
       originy="122.62599px"
       spacingx="0.625px"
       spacingy="0.625px" />
    <sodipodi:guide
       orientation="0,1"
       position="-5,127.62599"
       id="guide4320" />
    <sodipodi:guide
       orientation="0,1"
       position="22.5,212.62598"
       id="guide4322" />
    <sodipodi:guide
       orientation="1,0"
       position="90,147.62599"
       id="guide4356" />
    <sodipodi:guide
       orientation="1,0"
       position="180,137.62599"
       id="guide4358" />
    <sodipodi:guide
       orientation="0,1"
       position="72.5,117.62599"
       id="guide4360" />
    <sodipodi:guide
       orientation="0,1"
       position="87.5,32.625986"
       id="guide4362" />
    <sodipodi:guide
       orientation="1,0"
       position="0,185.12598"
       id="guide4366" />
  </sodipodi:namedview>
  <defs
     id="defs4">
    <marker
       inkscape:stockid="Arrow1Mend"
       orient="auto"
       refY="0"
       refX="0"
       id="Arrow1Mend"
       style="overflow:visible">
      <path
         id="path4425"
         d="M 0,0 5,-5 -12.5,0 5,5 0,0 z"
         style="fill-rule:evenodd;stroke:#000000;stroke-width:1pt"
         transform="matrix(-0.4,0,0,-0.4,-4,0)"
         inkscape:connector-curvature="0" />
    </marker>
  </defs>
  <metadata
     id="metadata7">
    <rdf:RDF>
      <cc:Work
         rdf:about="">
        <dc:format>image/svg+xml</dc:format>
        <dc:type
           rdf:resource="http://purl.org/dc/dcmitype/StillImage" />
        <dc:title></dc:title>
      </cc:Work>
    </rdf:RDF>
  </metadata>
  <g
     transform="translate(-180,-945.68218)"
     id="layer1"
     inkscape:groupmode="layer"
     inkscape:label="Layer 1">
    <text
       xml:space="preserve"
       style="font-size:24px;font-style:normal;font-variant:normal;font-weight:normal;font-stretch:normal;text-align:end;line-height:125%;letter-spacing:0px;word-spacing:0px;writing-mode:lr-tb;text-anchor:end;fill:#000000;fill-opacity:1;stroke:none;font-family:Liberation Sans;-inkscape-font-specification:Liberation Sans"
       x="314.92529"
       y="956.11218"
       id="text4252"
       sodipodi:linespacing="125%"><tspan
         sodipodi:role="line"
         id="tspan4254"
         x="314.92529"
         y="956.11218"
         style="font-size:14px;font-style:normal;font-variant:normal;font-weight:bold;font-stretch:normal;text-align:center;text-anchor:middle;font-family:TeXGyreHeros;-inkscape-font-specification:TeXGyreHeros Bold">Union</tspan></text>
    <text
       xml:space="preserve"
       style="font-size:24px;font-style:normal;font-variant:normal;font-weight:normal;font-stretch:normal;text-align:end;line-height:125%;letter-spacing:0px;word-spacing:0px;writing-mode:lr-tb;text-anchor:end;fill:#000000;fill-opacity:1;stroke:none;font-family:Liberation Sans;-inkscape-font-specification:Liberation Sans"
       x="405.0163"
       y="957.36218"
       id="text4252-5"
       sodipodi:linespacing="125%"><tspan
         sodipodi:role="line"
         id="tspan4254-9"
         x="405.0163"
         y="957.36218"
         style="font-size:14px;font-style:normal;font-variant:normal;font-weight:bold;font-stretch:normal;text-align:center;text-anchor:middle;font-family:TeXGyreHeros;-inkscape-font-specification:TeXGyreHeros Bold">Intersection</tspan></text>
    <text
       xml:space="preserve"
       style="font-size:24px;font-style:normal;font-variant:normal;font-weight:normal;font-stretch:normal;text-align:end;line-height:125%;letter-spacing:0px;word-spacing:0px;writing-mode:lr-tb;text-anchor:end;fill:#000000;fill-opacity:1;stroke:none;font-family:Liberation Sans;-inkscape-font-specification:Liberation Sans"
       x="314.6825"
       y="1157.3622"
       id="text4252-5-2"
       sodipodi:linespacing="125%"><tspan
         sodipodi:role="line"
         id="tspan4254-9-4"
         x="314.6825"
         y="1157.3622"
         style="font-size:14px;font-style:normal;font-variant:normal;font-weight:bold;font-stretch:normal;text-align:center;text-anchor:middle;font-family:TeXGyreHeros;-inkscape-font-specification:TeXGyreHeros Bold">Difference</tspan></text>
    <path
       inkscape:connector-curvature="0"
       id="path3484"
       d="m 203.75,1057.3622 12.5,0 0,1.25 3.75,0 0,1.25 2.5,0 0,1.25 2.5,0 0,1.25 2.5,0 0,1.25 1.25,0 0,1.25 1.25,0 0,1.25 1.25,0 0,1.25 1.25,0 0,1.25 1.25,0 0,1.25 1.25,0 0,2.5 1.25,0 0,2.5 1.25,0 0,2.5 1.25,0 0,3.75 1.25,0 0,12.5 -1.25,0 0,3.75 -1.25,0 0,2.5 -1.25,0 0,2.5 -1.25,0 0,2.5 -1.25,0 0,1.25 -1.25,0 0,1.25 -1.25,0 0,1.25 -1.25,0 0,1.25 -1.25,0 0,1.25 -1.25,0 0,1.25 -2.5,0 0,1.25 -2.5,0 0,1.25 -2.5,0 0,1.25 -3.75,0 0,1.25 -12.5,0 0,-1.25 -3.75,0 0,-1.25 -2.5,0 0,-1.25 -2.5,0 0,-1.25 -2.5,0 0,-1.25 -1.25,0 0,-1.25 -1.25,0 0,-1.25 -1.25,0 0,-1.25 -1.25,0 0,-1.25 -1.25,0 0,-1.25 -1.25,0 0,-2.5 -1.25,0 0,-2.5 -1.25,0 0,-2.5 -1.25,0 0,-3.75 -1.25,0 0,-12.5 1.25,0 0,-3.75 1.25,0 0,-2.5 1.25,0 0,-2.5 1.25,0 0,-2.5 1.25,0 0,-1.25 1.25,0 0,-1.25 1.25,0 0,-1.25 1.25,0 0,-1.25 1.25,0 0,-1.25 1.25,0 0,-1.25 2.5,0 0,-1.25 2.5,0 0,-1.25 2.5,0 0,-1.25 3.75,0 z"
       style="fill:#ff0000;fill-opacity:1;stroke:none" />
    <path
       inkscape:connector-curvature="0"
       id="path3482"
       d="m 226.875,1082.3622 6.25,0 0,0.625 3.75,0 0,0.625 2.5,0 0,0.625 1.875,0 0,0.625 1.25,0 0,0.625 1.25,0 0,0.625 1.25,0 0,0.625 1.25,0 0,0.625 0.625,0 0,0.625 0.625,0 0,0.625 1.25,0 0,0.625 0.625,0 0,0.625 0.625,0 0,0.625 0.625,0 0,0.625 0.625,0 0,0.625 0.625,0 0,0.625 0.625,0 0,0.625 0.625,0 0,0.625 0.625,0 0,1.25 0.625,0 0,0.625 0.625,0 0,0.625 0.625,0 0,1.25 0.625,0 0,1.25 0.625,0 0,1.25 0.625,0 0,1.25 0.625,0 0,1.875 0.625,0 0,2.5 0.625,0 0,3.75 0.625,0 0,6.25 -0.625,0 0,3.75 -0.625,0 0,2.5 -0.625,0 0,1.875 -0.625,0 0,1.25 -0.625,0 0,1.25 -0.625,0 0,1.25 -0.625,0 0,1.25 -0.625,0 0,0.625 -0.625,0 0,0.625 -0.625,0 0,1.25 -0.625,0 0,0.625 -0.625,0 0,0.625 -0.625,0 0,0.625 -0.625,0 0,0.625 -0.625,0 0,0.625 -0.625,0 0,0.625 -0.625,0 0,0.625 -0.625,0 0,0.625 -1.25,0 0,0.625 -0.625,0 0,0.625 -0.625,0 0,0.625 -1.25,0 0,0.625 -1.25,0 0,0.625 -1.25,0 0,0.625 -1.25,0 0,0.625 -1.875,0 0,0.625 -2.5,0 0,0.625 -3.75,0 0,0.625 -6.25,0 0,-0.625 -3.75,0 0,-0.625 -2.5,0 0,-0.625 -1.875,0 0,-0.625 -1.25,0 0,-0.625 -1.25,0 0,-0.625 -1.25,0 0,-0.625 -1.25,0 0,-0.625 -0.625,0 0,-0.625 -0.625,0 0,-0.625 -1.25,0 0,-0.625 -0.625,0 0,-0.625 -0.625,0 0,-0.625 -0.625,0 0,-0.625 -0.625,0 0,-0.625 -0.625,0 0,-0.625 -0.625,0 0,-0.625 -0.625,0 0,-0.625 -0.625,0 0,-1.25 -0.625,0 0,-0.625 -0.625,0 0,-0.625 -0.625,0 0,-1.25 -0.625,0 0,-1.25 -0.625,0 0,-1.25 -0.625,0 0,-1.25 -0.625,0 0,-1.875 -0.625,0 0,-2.5 -0.625,0 0,-3.75 -0.625,0 0,-6.25 0.625,0 0,-3.75 0.625,0 0,-2.5 0.625,0 0,-1.875 0.625,0 0,-1.25 0.625,0 0,-1.25 0.625,0 0,-1.25 0.625,0 0,-1.25 0.625,0 0,-0.625 0.625,0 0,-0.625 0.625,0 0,-1.25 0.625,0 0,-0.625 0.625,0 0,-0.625 0.625,0 0,-0.625 0.625,0 0,-0.625 0.625,0 0,-0.625 0.625,0 0,-0.625 0.625,0 0,-0.625 0.625,0 0,-0.625 1.25,0 0,-0.625 0.625,0 0,-0.625 0.625,0 0,-0.625 1.25,0 0,-0.625 1.25,0 0,-0.625 1.25,0 0,-0.625 1.25,0 0,-0.625 1.875,0 0,-0.625 2.5,0 0,-0.625 3.75,0 z"
       style="fill:#00ff00;fill-opacity:1;stroke:none" />
    <path
       style="fill:#000000;fill-opacity:1;stroke:none"
       d="m 293.75,962.3622 0,1.25 -3.75,0 0,1.25 -2.5,0 0,1.25 -2.5,0 0,1.25 -2.5,0 0,1.25 -1.25,0 0,1.25 -1.25,0 0,1.25 -1.25,0 0,1.25 -1.25,0 0,1.25 -1.25,0 0,1.25 -1.25,0 0,2.5 -1.25,0 0,2.5 -1.25,0 0,2.5 -1.25,0 0,3.75 -1.25,0 0,12.5 1.25,0 0,3.75 1.25,0 0,2.5 1.25,0 0,2.5 1.25,0 0,2.5 1.25,0 0,1.25 1.25,0 0,1.25 1.25,0 0,1.25 1.25,0 0,1.25 1.25,0 0,1.25 1.25,0 0,1.25 2.5,0 0,1.25 2.5,0 0,1.25 2.5,0 0,0.625 0,0.625 0.625,0 0,3.125 0.625,0 0,2.5 0.625,0 0,1.875 0.625,0 0,1.25 0.625,0 0,1.25 0.625,0 0,1.25 0.625,0 0,1.25 0.625,0 0,0.625 0.625,0 0,0.625 0.625,0 0,1.25 0.625,0 0,0.625 0.625,0 0,0.625 0.625,0 0,0.625 0.625,0 0,0.625 0.625,0 0,0.625 0.625,0 0,0.625 0.625,0 0,0.625 0.625,0 0,0.625 1.25,0 0,0.625 0.625,0 0,0.625 0.625,0 0,0.625 1.25,0 0,0.625 1.25,0 0,0.625 1.25,0 0,0.625 1.25,0 0,0.625 1.875,0 0,0.625 2.5,0 0,0.625 3.75,0 0,0.625 6.25,0 0,-0.625 3.75,0 0,-0.625 2.5,0 0,-0.625 1.875,0 0,-0.625 1.25,0 0,-0.625 1.25,0 0,-0.625 1.25,0 0,-0.625 1.25,0 0,-0.625 0.625,0 0,-0.625 0.625,0 0,-0.625 1.25,0 0,-0.625 0.625,0 0,-0.625 0.625,0 0,-0.625 0.625,0 0,-0.625 0.625,0 0,-0.625 0.625,0 0,-0.625 0.625,0 0,-0.625 0.625,0 0,-0.625 0.625,0 0,-1.25 0.625,0 0,-0.625 0.625,0 0,-0.625 0.625,0 0,-1.25 0.625,0 0,-1.25 0.625,0 0,-1.25 0.625,0 0,-1.25 0.625,0 0,-1.875 0.625,0 0,-2.5 0.625,0 0,-3.75 0.625,0 0,-6.25 -0.625,0 0,-3.75 -0.625,0 0,-2.5 -0.625,0 0,-1.875 -0.625,0 0,-1.25 -0.625,0 0,-1.25 -0.625,0 0,-1.25 -0.625,0 0,-1.25 -0.625,0 0,-0.625 -0.625,0 0,-0.625 -0.625,0 0,-1.25 -0.625,0 0,-0.625 -0.625,0 0,-0.625 -0.625,0 0,-0.625 -0.625,0 0,-0.625 -0.625,0 0,-0.625 -0.625,0 0,-0.625 -0.625,0 0,-0.625 -0.625,0 0,-0.625 -1.25,0 0,-0.625 -0.625,0 0,-0.625 -0.625,0 0,-0.625 -1.25,0 0,-0.625 -1.25,0 0,-0.625 -1.25,0 0,-0.625 -1.25,0 0,-0.625 -1.25,0 0,-3.125 -1.25,0 0,-3.75 -1.25,0 0,-2.5 -1.25,0 0,-2.5 -1.25,0 0,-2.5 -1.25,0 0,-1.25 -1.25,0 0,-1.25 -1.25,0 0,-1.25 -1.25,0 0,-1.25 -1.25,0 0,-1.25 -1.25,0 0,-1.25 -2.5,0 0,-1.25 -2.5,0 0,-1.25 -2.5,0 0,-1.25 -3.75,0 0,-1.25 -12.5,0 z"
       id="path4260"
       inkscape:connector-curvature="0" />
    <path
       style="fill:#000000;fill-opacity:1;stroke:none"
       d="m 293.75,1057.3622 0,1.25 -3.75,0 0,1.25 -2.5,0 0,1.25 -2.5,0 0,1.25 -2.5,0 0,1.25 -1.25,0 0,1.25 -1.25,0 0,1.25 -1.25,0 0,1.25 -1.25,0 0,1.25 -1.25,0 0,1.25 -1.25,0 0,2.5 -1.25,0 0,2.5 -1.25,0 0,2.5 -1.25,0 0,3.75 -1.25,0 0,12.5 1.25,0 0,3.75 1.25,0 0,2.5 1.25,0 0,2.5 1.25,0 0,2.5 1.25,0 0,1.25 1.25,0 0,1.25 1.25,0 0,1.25 1.25,0 0,1.25 1.25,0 0,1.25 1.25,0 0,1.25 2.5,0 0,1.25 2.5,0 0,1.25 2.5,0 0,-5.625 0.625,0 0,-3.75 0.625,0 0,-2.5 0.625,0 0,-1.875 0.625,0 0,-1.25 0.625,0 0,-1.25 0.625,0 0,-1.25 0.625,0 0,-1.25 0.625,0 0,-0.625 0.625,0 0,-0.625 0.625,0 0,-1.25 0.625,0 0,-0.625 0.625,0 0,-0.625 0.625,0 0,-0.625 0.625,0 0,-0.625 0.625,0 0,-0.625 0.625,0 0,-0.625 0.625,0 0,-0.625 0.625,0 0,-0.625 1.25,0 0,-0.625 0.625,0 0,-0.625 0.625,0 0,-0.625 1.25,0 0,-0.625 1.25,0 0,-0.625 1.25,0 0,-0.625 1.25,0 0,-0.625 1.875,0 0,-0.625 2.5,0 0,-0.625 3.75,0 0,-0.625 6.25,0 0,0.625 3.75,0 0,0.625 2.5,0 0,0.625 0.625,0 0,-3.125 -1.25,0 0,-3.75 -1.25,0 0,-2.5 -1.25,0 0,-2.5 -1.25,0 0,-2.5 -1.25,0 0,-1.25 -1.25,0 0,-1.25 -1.25,0 0,-1.25 -1.25,0 0,-1.25 -1.25,0 0,-1.25 -1.25,0 0,-1.25 -2.5,0 0,-1.25 -2.5,0 0,-1.25 -2.5,0 0,-1.25 -3.75,0 0,-1.25 -12.5,0 z m -3.75,58.125 0,0.625 0.625,0 0,-0.625 -0.625,0 z"
       id="path4268"
       inkscape:connector-curvature="0" />
    <path
       style="fill:#000000;fill-opacity:1;stroke:none"
       d="m 383.75,1057.3622 0,1.25 -3.75,0 0,1.25 -2.5,0 0,1.25 -2.5,0 0,1.25 -2.5,0 0,1.25 -1.25,0 0,1.25 -1.25,0 0,1.25 -1.25,0 0,1.25 -1.25,0 0,1.25 -1.25,0 0,1.25 -1.25,0 0,2.5 -1.25,0 0,2.5 -1.25,0 0,2.5 -1.25,0 0,3.75 -1.25,0 0,12.5 1.25,0 0,3.75 1.25,0 0,2.5 1.25,0 0,2.5 1.25,0 0,2.5 1.25,0 0,1.25 1.25,0 0,1.25 1.25,0 0,1.25 1.25,0 0,1.25 1.25,0 0,1.25 1.25,0 0,1.25 2.5,0 0,1.25 2.5,0 0,1.25 2.5,0 0,-5.625 0.625,0 0,-3.75 0.625,0 0,-2.5 0.625,0 0,-1.875 0.625,0 0,-1.25 0.625,0 0,-1.25 0.625,0 0,-1.25 0.625,0 0,-1.25 0.625,0 0,-0.625 0.625,0 0,-0.625 0.625,0 0,-1.25 0.625,0 0,-0.625 0.625,0 0,-0.625 0.625,0 0,-0.625 0.625,0 0,-0.625 0.625,0 0,-0.625 0.625,0 0,-0.625 0.625,0 0,-0.625 0.625,0 0,-0.625 1.25,0 0,-0.625 0.625,0 0,-0.625 0.625,0 0,-0.625 1.25,0 0,-0.625 1.25,0 0,-0.625 1.25,0 0,-0.625 1.25,0 0,-0.625 1.875,0 0,-0.625 2.5,0 0,-0.625 3.75,0 0,-0.625 6.25,0 0,0.625 3.75,0 0,0.625 2.5,0 0,0.625 0.625,0 0,-3.125 -1.25,0 0,-3.75 -1.25,0 0,-2.5 -1.25,0 0,-2.5 -1.25,0 0,-2.5 -1.25,0 0,-1.25 -1.25,0 0,-1.25 -1.25,0 0,-1.25 -1.25,0 0,-1.25 -1.25,0 0,-1.25 -1.25,0 0,-1.25 -2.5,0 0,-1.25 -2.5,0 0,-1.25 -2.5,0 0,-1.25 -3.75,0 0,-1.25 -12.5,0 z m 36.25,26.875 0,9.375 -1.25,0 0,3.75 -1.25,0 0,2.5 -1.25,0 0,2.5 -1.25,0 0,2.5 -1.25,0 0,1.25 -1.25,0 0,1.25 -1.25,0 0,1.25 -1.25,0 0,1.25 -1.25,0 0,1.25 -1.25,0 0,1.25 -2.5,0 0,1.25 -2.5,0 0,1.25 -2.5,0 0,1.25 -3.75,0 0,1.25 -12.5,0 0,-1.25 -3.125,0 0,3.125 0.625,0 0,2.5 0.625,0 0,1.875 0.625,0 0,1.25 0.625,0 0,1.25 0.625,0 0,1.25 0.625,0 0,1.25 0.625,0 0,0.625 0.625,0 0,0.625 0.625,0 0,1.25 0.625,0 0,0.625 0.625,0 0,0.625 0.625,0 0,0.625 0.625,0 0,0.625 0.625,0 0,0.625 0.625,0 0,0.625 0.625,0 0,0.625 0.625,0 0,0.625 1.25,0 0,0.625 0.625,0 0,0.625 0.625,0 0,0.625 1.25,0 0,0.625 1.25,0 0,0.625 1.25,0 0,0.625 1.25,0 0,0.625 1.875,0 0,0.625 2.5,0 0,0.625 3.75,0 0,0.625 6.25,0 0,-0.625 3.75,0 0,-0.625 2.5,0 0,-0.625 1.875,0 0,-0.625 1.25,0 0,-0.625 1.25,0 0,-0.625 1.25,0 0,-0.625 1.25,0 0,-0.625 0.625,0 0,-0.625 0.625,0 0,-0.625 1.25,0 0,-0.625 0.625,0 0,-0.625 0.625,0 0,-0.625 0.625,0 0,-0.625 0.625,0 0,-0.625 0.625,0 0,-0.625 0.625,0 0,-0.625 0.625,0 0,-0.625 0.625,0 0,-1.25 0.625,0 0,-0.625 0.625,0 0,-0.625 0.625,0 0,-1.25 0.625,0 0,-1.25 0.625,0 0,-1.25 0.625,0 0,-1.25 0.625,0 0,-1.875 0.625,0 0,-2.5 0.625,0 0,-3.75 0.625,0 0,-6.25 -0.625,0 0,-3.75 -0.625,0 0,-2.5 -0.625,0 0,-1.875 -0.625,0 0,-1.25 -0.625,0 0,-1.25 -0.625,0 0,-1.25 -0.625,0 0,-1.25 -0.625,0 0,-0.625 -0.625,0 0,-0.625 -0.625,0 0,-1.25 -0.625,0 0,-0.625 -0.625,0 0,-0.625 -0.625,0 0,-0.625 -0.625,0 0,-0.625 -0.625,0 0,-0.625 -0.625,0 0,-0.625 -0.625,0 0,-0.625 -0.625,0 0,-0.625 -1.25,0 0,-0.625 -0.625,0 0,-0.625 -0.625,0 0,-0.625 -1.25,0 0,-0.625 -1.25,0 0,-0.625 -1.25,0 0,-0.625 -1.25,0 0,-0.625 -1.25,0 z m -39.375,31.875 0,-0.625 -0.625,0 0,0.625 0.625,0 z"
       id="path4272"
       inkscape:connector-curvature="0" />
    <text
       sodipodi:linespacing="125%"
       id="text4304"
       y="1157.3622"
       x="405.01849"
       style="font-size:24px;font-style:normal;font-variant:normal;font-weight:normal;font-stretch:normal;text-align:end;line-height:125%;letter-spacing:0px;word-spacing:0px;writing-mode:lr-tb;text-anchor:end;fill:#000000;fill-opacity:1;stroke:none;font-family:Liberation Sans;-inkscape-font-specification:Liberation Sans"
       xml:space="preserve"><tspan
         style="font-size:14px;font-style:normal;font-variant:normal;font-weight:bold;font-stretch:normal;text-align:center;text-anchor:middle;font-family:TeXGyreHeros;-inkscape-font-specification:TeXGyreHeros Bold"
         y="1157.3622"
         x="405.01849"
         id="tspan4306"
         sodipodi:role="line">Symmetric</tspan><tspan
         style="font-size:14px;font-style:normal;font-variant:normal;font-weight:bold;font-stretch:normal;text-align:center;text-anchor:middle;font-family:TeXGyreHeros;-inkscape-font-specification:TeXGyreHeros Bold"
         y="1174.8622"
         x="405.01849"
         sodipodi:role="line"
         id="tspan4308">Difference</tspan></text>
    <path
       inkscape:connector-curvature="0"
       id="path4348"
       d="m 406.875,987.3622 0,0.625 -3.75,0 0,0.625 -2.5,0 0,0.625 -1.875,0 0,0.625 -1.25,0 0,0.625 -1.25,0 0,0.625 -1.25,0 0,0.625 -1.25,0 0,0.625 -0.625,0 0,0.625 -0.625,0 0,0.625 -1.25,0 0,0.625 -0.625,0 0,0.625 -0.625,0 0,0.625 -0.625,0 0,0.625 -0.625,0 0,0.625 -0.625,0 0,0.625 -0.625,0 0,0.625 -0.625,0 0,0.625 -0.625,0 0,1.25 -0.625,0 0,0.625 -0.625,0 0,0.625 -0.625,0 0,1.25 -0.625,0 0,1.25 -0.625,0 0,1.25 -0.625,0 0,1.25 -0.625,0 0,1.875 -0.625,0 0,2.5 -0.625,0 0,3.75 -0.625,0 0,5.625 0,0.625 0.625,0 0,0.625 3.125,0 0,1.25 12.5,0 0,-1.25 3.75,0 0,-1.25 2.5,0 0,-1.25 2.5,0 0,-1.25 2.5,0 0,-1.25 1.25,0 0,-1.25 1.25,0 0,-1.25 1.25,0 0,-1.25 1.25,0 0,-1.25 1.25,0 0,-1.25 1.25,0 0,-2.5 1.25,0 0,-2.5 1.25,0 0,-2.5 1.25,0 0,-3.75 1.25,0 0,-9.375 -0.625,0 0,-0.625 -2.5,0 0,-0.625 -3.75,0 0,-0.625 -6.25,0 z"
       style="fill:#000000;fill-opacity:1;stroke:none" />
    <g
       id="g4378">
      <path
         inkscape:connector-curvature="0"
         id="path4264"
         d="m 226.875,987.3622 0,0.625 -3.75,0 0,0.625 -2.5,0 0,0.625 -1.875,0 0,0.625 -1.25,0 0,0.625 -1.25,0 0,0.625 -1.25,0 0,0.625 -1.25,0 0,0.625 -0.625,0 0,0.625 -0.625,0 0,0.625 -1.25,0 0,0.625 -0.625,0 0,0.625 -0.625,0 0,0.625 -0.625,0 0,0.625 -0.625,0 0,0.625 -0.625,0 0,0.625 -0.625,0 0,0.625 -0.625,0 0,0.625 -0.625,0 0,1.25 -0.625,0 0,0.625 -0.625,0 0,0.625 -0.625,0 0,1.25 -0.625,0 0,1.25 -0.625,0 0,1.25 -0.625,0 0,1.25 -0.625,0 0,1.875 -0.625,0 0,2.5 -0.625,0 0,3.75 -0.625,0 0,5.625 0,0.625 0.625,0 0,0.625 3.125,0 0,1.25 12.5,0 0,-1.25 3.75,0 0,-1.25 2.5,0 0,-1.25 2.5,0 0,-1.25 2.5,0 0,-1.25 1.25,0 0,-1.25 1.25,0 0,-1.25 1.25,0 0,-1.25 1.25,0 0,-1.25 1.25,0 0,-1.25 1.25,0 0,-2.5 1.25,0 0,-2.5 1.25,0 0,-2.5 1.25,0 0,-3.75 1.25,0 0,-9.375 -0.625,0 0,-0.625 -2.5,0 0,-0.625 -3.75,0 0,-0.625 -6.25,0 z"
         style="fill:#000000;fill-opacity:0.78440366;stroke:none" />
      <path
         inkscape:connector-curvature="0"
         id="path5461"
         d="m 203.75,962.3622 12.5,0 0,1.25 3.75,0 0,1.25 2.5,0 0,1.25 2.5,0 0,1.25 2.5,0 0,1.25 1.25,0 0,1.25 1.25,0 0,1.25 1.25,0 0,1.25 1.25,0 0,1.25 1.25,0 0,1.25 1.25,0 0,2.5 1.25,0 0,2.5 1.25,0 0,2.5 1.25,0 0,3.75 1.25,0 0,12.5 -1.25,0 0,3.75 -1.25,0 0,2.5 -1.25,0 0,2.5 -1.25,0 0,2.5 -1.25,0 0,1.25 -1.25,0 0,1.25 -1.25,0 0,1.25 -1.25,0 0,1.25 -1.25,0 0,1.25 -1.25,0 0,1.25 -2.5,0 0,1.25 -2.5,0 0,1.25 -2.5,0 0,1.25 -3.75,0 0,1.25 -12.5,0 0,-1.25 -3.75,0 0,-1.25 -2.5,0 0,-1.25 -2.5,0 0,-1.25 -2.5,0 0,-1.25 -1.25,0 0,-1.25 -1.25,0 0,-1.25 -1.25,0 0,-1.25 -1.25,0 0,-1.25 -1.25,0 0,-1.25 -1.25,0 0,-2.5 -1.25,0 0,-2.5 -1.25,0 0,-2.5 -1.25,0 0,-3.75 -1.25,0 0,-12.5 1.25,0 0,-3.75 1.25,0 0,-2.5 1.25,0 0,-2.5 1.25,0 0,-2.5 1.25,0 0,-1.25 1.25,0 0,-1.25 1.25,0 0,-1.25 1.25,0 0,-1.25 1.25,0 0,-1.25 1.25,0 0,-1.25 2.5,0 0,-1.25 2.5,0 0,-1.25 2.5,0 0,-1.25 3.75,0 z"
         style="fill:#000000;fill-opacity:1;stroke:none" />
      <path
         inkscape:connector-curvature="0"
         id="path5463"
         d="m 226.875,987.3622 6.25,0 0,0.625 3.75,0 0,0.625 2.5,0 0,0.625 1.875,0 0,0.625 1.25,0 0,0.625 1.25,0 0,0.625 1.25,0 0,0.625 1.25,0 0,0.625 0.625,0 0,0.625 0.625,0 0,0.625 1.25,0 0,0.625 0.625,0 0,0.625 0.625,0 0,0.625 0.625,0 0,0.625 0.625,0 0,0.625 0.625,0 0,0.625 0.625,0 0,0.625 0.625,0 0,0.625 0.625,0 0,1.25 0.625,0 0,0.625 0.625,0 0,0.625 0.625,0 0,1.25 0.625,0 0,1.25 0.625,0 0,1.25 0.625,0 0,1.25 0.625,0 0,1.875 0.625,0 0,2.5 0.625,0 0,3.75 0.625,0 0,6.25 -0.625,0 0,3.75 -0.625,0 0,2.5 -0.625,0 0,1.875 -0.625,0 0,1.25 -0.625,0 0,1.25 -0.625,0 0,1.25 -0.625,0 0,1.25 -0.625,0 0,0.625 -0.625,0 0,0.625 -0.625,0 0,1.25 -0.625,0 0,0.625 -0.625,0 0,0.625 -0.625,0 0,0.625 -0.625,0 0,0.625 -0.625,0 0,0.625 -0.625,0 0,0.625 -0.625,0 0,0.625 -0.625,0 0,0.625 -1.25,0 0,0.625 -0.625,0 0,0.625 -0.625,0 0,0.625 -1.25,0 0,0.625 -1.25,0 0,0.625 -1.25,0 0,0.625 -1.25,0 0,0.625 -1.875,0 0,0.625 -2.5,0 0,0.625 -3.75,0 0,0.625 -6.25,0 0,-0.625 -3.75,0 0,-0.625 -2.5,0 0,-0.625 -1.875,0 0,-0.625 -1.25,0 0,-0.625 -1.25,0 0,-0.625 -1.25,0 0,-0.625 -1.25,0 0,-0.625 -0.625,0 0,-0.625 -0.625,0 0,-0.625 -1.25,0 0,-0.625 -0.625,0 0,-0.625 -0.625,0 0,-0.625 -0.625,0 0,-0.625 -0.625,0 0,-0.625 -0.625,0 0,-0.625 -0.625,0 0,-0.625 -0.625,0 0,-0.625 -0.625,0 0,-1.25 -0.625,0 0,-0.625 -0.625,0 0,-0.625 -0.625,0 0,-1.25 -0.625,0 0,-1.25 -0.625,0 0,-1.25 -0.625,0 0,-1.25 -0.625,0 0,-1.875 -0.625,0 0,-2.5 -0.625,0 0,-3.75 -0.625,0 0,-6.25 0.625,0 0,-3.75 0.625,0 0,-2.5 0.625,0 0,-1.875 0.625,0 0,-1.25 0.625,0 0,-1.25 0.625,0 0,-1.25 0.625,0 0,-1.25 0.625,0 0,-0.625 0.625,0 0,-0.625 0.625,0 0,-1.25 0.625,0 0,-0.625 0.625,0 0,-0.625 0.625,0 0,-0.625 0.625,0 0,-0.625 0.625,0 0,-0.625 0.625,0 0,-0.625 0.625,0 0,-0.625 0.625,0 0,-0.625 1.25,0 0,-0.625 0.625,0 0,-0.625 0.625,0 0,-0.625 1.25,0 0,-0.625 1.25,0 0,-0.625 1.25,0 0,-0.625 1.25,0 0,-0.625 1.875,0 0,-0.625 2.5,0 0,-0.625 3.75,0 z"
         style="fill:#000000;fill-opacity:1;stroke:none" />
      <text
         sodipodi:linespacing="125%"
         id="text4252-5-4-1"
         y="1021.5262"
         x="229.64984"
         style="font-size:24px;font-style:normal;font-variant:normal;font-weight:normal;font-stretch:normal;text-align:center;line-height:125%;letter-spacing:0px;word-spacing:0px;writing-mode:lr-tb;text-anchor:middle;fill:#ffffff;fill-opacity:1;stroke:#000000;stroke-width:0.25;stroke-miterlimit:4;stroke-opacity:1;stroke-dasharray:none;font-family:Liberation Sans;-inkscape-font-specification:Liberation Sans"
         xml:space="preserve"><tspan
           style="font-size:12px;font-style:normal;font-variant:normal;font-weight:normal;font-stretch:normal;text-align:center;text-anchor:middle;fill:#ffffff;fill-opacity:1;stroke:#000000;stroke-width:0.25;stroke-miterlimit:4;stroke-opacity:1;stroke-dasharray:none;font-family:TeXGyreHeros;-inkscape-font-specification:TeXGyreHeros"
           y="1021.5262"
           x="229.64984"
           id="tspan4254-9-5-9"
           sodipodi:role="line">16×16</tspan></text>
      <text
         sodipodi:linespacing="125%"
         id="text4252-5-4-4"
         y="996.52618"
         x="210.03984"
         style="font-size:24px;font-style:normal;font-variant:normal;font-weight:normal;font-stretch:normal;text-align:center;line-height:125%;letter-spacing:0px;word-spacing:0px;writing-mode:lr-tb;text-anchor:middle;fill:#ffffff;fill-opacity:1;stroke:#000000;stroke-width:0.25;stroke-miterlimit:4;stroke-opacity:1;stroke-dasharray:none;font-family:Liberation Sans;-inkscape-font-specification:Liberation Sans"
         xml:space="preserve"><tspan
           style="font-size:12px;font-style:normal;font-variant:normal;font-weight:normal;font-stretch:normal;text-align:center;text-anchor:middle;fill:#ffffff;fill-opacity:1;stroke:#000000;stroke-width:0.25;stroke-miterlimit:4;stroke-opacity:1;stroke-dasharray:none;font-family:TeXGyreHeros;-inkscape-font-specification:TeXGyreHeros"
           y="996.52618"
           x="210.03984"
           id="tspan4254-9-5-0"
           sodipodi:role="line">8×8</tspan></text>
    </g>
    <path
       style="fill:#fff601;fill-opacity:1;stroke:none"
       d="m 226.875,1082.3622 0,0.625 -3.75,0 0,0.625 -2.5,0 0,0.625 -1.875,0 0,0.625 -1.25,0 0,0.625 -1.25,0 0,0.625 -1.25,0 0,0.625 -1.25,0 0,0.625 -0.625,0 0,0.625 -0.625,0 0,0.625 -1.25,0 0,0.625 -0.625,0 0,0.625 -0.625,0 0,0.625 -0.625,0 0,0.625 -0.625,0 0,0.625 -0.625,0 0,0.625 -0.625,0 0,0.625 -0.625,0 0,0.625 -0.625,0 0,1.25 -0.625,0 0,0.625 -0.625,0 0,0.625 -0.625,0 0,1.25 -0.625,0 0,1.25 -0.625,0 0,1.25 -0.625,0 0,1.25 -0.625,0 0,1.875 -0.625,0 0,2.5 -0.625,0 0,3.75 -0.625,0 0,5.625 0,0.625 0.625,0 0,0.625 3.125,0 0,1.25 12.5,0 0,-1.25 3.75,0 0,-1.25 2.5,0 0,-1.25 2.5,0 0,-1.25 2.5,0 0,-1.25 1.25,0 0,-1.25 1.25,0 0,-1.25 1.25,0 0,-1.25 1.25,0 0,-1.25 1.25,0 0,-1.25 1.25,0 0,-2.5 1.25,0 0,-2.5 1.25,0 0,-2.5 1.25,0 0,-3.75 1.25,0 0,-9.375 -0.625,0 0,-0.625 -2.5,0 0,-0.625 -3.75,0 0,-0.625 -6.25,0 z"
       id="path4387"
       inkscape:connector-curvature="0" />
  </g>
</svg>
