<?xml version="1.0" encoding="utf-8"?>
<!-- Generator: Adobe Illustrator 15.1.0, SVG Export Plug-In . SVG Version: 6.00 Build 0)  -->
<!DOCTYPE svg PUBLIC "-//W3C//DTD SVG 1.1//EN" "http://www.w3.org/Graphics/SVG/1.1/DTD/svg11.dtd">
<svg version="1.1" id="logo" xmlns="http://www.w3.org/2000/svg" xmlns:xlink="http://www.w3.org/1999/xlink" x="0px" y="0px"
	 width="1024px" height="358px" viewBox="0 0 1024 358" enable-background="new 0 0 1024 358" xml:space="preserve">
<g>
	<path fill="#C74A1C" d="M261.751,76.669c-24.4-24.401-56.382-36.602-88.365-36.602c-31.982,0-63.965,12.2-88.366,36.602
		c-45.071,45.07-48.515,115.999-10.339,165.024L41.29,275.085c-1.728,1.728-1.728,4.528,0,6.256l19.81,19.81
		c1.728,1.729,4.529,1.729,6.255,0l33.989-33.987c21.524,15.221,46.781,22.838,72.04,22.838c31.983,0,63.965-12.2,88.367-36.601
		C310.554,204.598,310.554,125.47,261.751,76.669z M247.652,239.3c-19.837,19.837-46.213,30.761-74.267,30.761
		c-28.053,0-54.426-10.924-74.263-30.76c-19.836-19.836-30.761-46.211-30.761-74.264c0-28.054,10.925-54.428,30.761-74.264
		c19.837-19.837,46.211-30.762,74.264-30.762c28.054,0,54.428,10.925,74.265,30.762c19.836,19.836,30.762,46.21,30.762,74.264
		C278.413,193.09,267.487,219.465,247.652,239.3z"/>
	<path fill="#4A2720" d="M247.651,90.773c-19.837-19.837-46.211-30.762-74.265-30.762c-28.053,0-54.427,10.925-74.264,30.762
		c-19.836,19.836-30.761,46.21-30.761,74.264c0,28.053,10.925,54.428,30.761,74.264c19.837,19.836,46.21,30.76,74.263,30.76
		c28.054,0,54.43-10.924,74.267-30.761c19.835-19.835,30.761-46.21,30.761-74.263C278.413,136.983,267.487,110.609,247.651,90.773z
		 M192,199.85c4,0,5.783-0.293,6.906-0.881c1.122-0.589,2.067-1.59,2.551-3.007c0.484-1.418,0.726-4.458,0.726-9.124
		c0-5.183,0.396-8.959,1.192-11.327c0.795-2.367,1.754-4.129,2.877-5.288c1.122-1.158,2.843-2.272,5.158-3.344
		c-2.225-0.967-3.822-1.919-4.796-2.852c-1.285-1.244-2.275-2.886-2.97-4.925c-0.938-2.661-1.424-6.317-1.46-10.965
		c-0.034-4.648-0.172-7.493-0.416-8.529c-0.446-1.9-1.211-3.313-2.294-4.229c-1.082-0.915-2.707-1.38-4.872-1.38H192v-17h7.28
		c3.941,0,7.447,0.367,10.524,1.094c2.315,0.553,4.148,1.387,5.495,2.493c1.796,1.451,3.205,3.544,4.225,6.273
		c1.018,2.73,1.529,7.154,1.529,13.271c0,0.796-0.053,1.59-0.053,2.385v1.762c0,4.078,0.346,6.972,1.037,8.683
		c0.692,1.71,1.674,2.981,3.005,3.808c1.329,0.83,2.958,1.244,5.958,1.244v17.781c-3,0.07-4.542,0.488-5.907,1.248
		c-1.366,0.76-2.382,1.991-3.108,3.684c-0.726,1.693-1.088,4.551-1.088,8.56c0,0.796,0.016,1.584,0.051,2.344
		c0.07,1.244,0.104,2.511,0.104,3.755c0,5.633-0.606,9.902-1.813,12.719c-1.211,2.817-3.232,5.049-6.065,6.518
		c-2.835,1.469-7.621,2.381-14.36,2.381H192V199.85z M154,133.999h-1.831c-2.166,0-3.791,0.465-4.874,1.38
		c-1.082,0.916-1.847,2.332-2.294,4.231c-0.243,1.037-0.382,3.88-0.417,8.528s-0.522,8.303-1.46,10.964
		c-0.695,2.039-1.687,3.68-2.972,4.924c-0.975,0.933-2.577,1.884-4.8,2.851c2.315,1.072,4.027,2.186,5.151,3.344
		c1.123,1.159,2.066,2.922,2.862,5.288c0.794,2.368,1.161,6.144,1.161,11.327c0,4.666,0.181,7.706,0.665,9.124
		c0.484,1.417,1.166,2.419,2.288,3.007c1.124,0.588,3.521,0.881,6.521,0.881v17.151h-6.041c-6.738,0-11.524-0.912-14.357-2.381
		c-2.834-1.47-4.853-3.789-6.063-6.605c-1.211-2.817-1.81-7.043-1.81-12.675c0-1.244,0.043-2.488,0.113-3.732
		c0.033-0.76,0.069-1.537,0.069-2.332c0-4.01-0.327-6.86-1.053-8.555c-0.725-1.692-1.699-2.92-3.064-3.68
		c-1.366-0.761-3.793-1.175-5.793-1.245v-17.781c2,0,4.571-0.414,5.902-1.244c1.329-0.829,2.254-2.1,2.946-3.81
		c0.691-1.711,1.151-4.605,1.151-8.683v-1.762c0-0.795-0.166-1.59-0.166-2.385c0-6.117,0.396-10.541,1.415-13.271
		c1.018-2.729,2.428-4.823,4.225-6.274c1.348-1.106,3.179-1.937,5.495-2.49c3.075-0.727,6.583-1.094,10.523-1.095H154V133.999z"/>
	<path fill="#EEE6C7" d="M136.969,118.094c-2.316,0.553-4.147,1.384-5.495,2.49c-1.797,1.451-3.207,3.545-4.225,6.274
		c-1.019,2.73-1.415,7.154-1.415,13.271c0,0.795,0.166,1.59,0.166,2.385v1.762c0,4.078-0.46,6.972-1.151,8.683
		c-0.692,1.71-1.617,2.981-2.946,3.81c-1.331,0.83-3.902,1.244-5.902,1.244v17.781c2,0.07,4.427,0.484,5.793,1.245
		c1.365,0.76,2.339,1.988,3.064,3.68c0.726,1.694,1.053,4.545,1.053,8.555c0,0.795-0.036,1.572-0.069,2.332
		c-0.07,1.244-0.113,2.488-0.113,3.732c0,5.632,0.599,9.857,1.81,12.675c1.21,2.816,3.229,5.136,6.063,6.605
		c2.833,1.469,7.619,2.381,14.357,2.381H154v-17.151c-3,0-5.397-0.293-6.521-0.881c-1.122-0.588-1.804-1.59-2.288-3.007
		c-0.484-1.418-0.665-4.458-0.665-9.124c0-5.184-0.367-8.959-1.161-11.327c-0.796-2.366-1.739-4.129-2.862-5.288
		c-1.124-1.158-2.836-2.271-5.151-3.344c2.223-0.967,3.825-1.918,4.8-2.851c1.285-1.244,2.277-2.885,2.972-4.924
		c0.938-2.661,1.425-6.316,1.46-10.964s0.174-7.491,0.417-8.528c0.447-1.899,1.212-3.315,2.294-4.231
		c1.083-0.915,2.708-1.38,4.874-1.38H154v-17h-6.508C143.552,117,140.044,117.367,136.969,118.094z"/>
	<path fill="#EEE6C7" d="M213.173,214.619c2.833-1.469,4.854-3.7,6.065-6.518c1.208-2.816,1.813-7.086,1.813-12.719
		c0-1.244-0.034-2.511-0.104-3.755c-0.035-0.76-0.051-1.548-0.051-2.344c0-4.009,0.362-6.866,1.088-8.56
		c0.726-1.692,1.742-2.924,3.108-3.684c1.365-0.76,2.907-1.178,5.907-1.248v-17.781c-3,0-4.629-0.414-5.958-1.244
		c-1.331-0.827-2.313-2.098-3.005-3.808c-0.691-1.711-1.037-4.605-1.037-8.683v-1.762c0-0.795,0.053-1.589,0.053-2.385
		c0-6.117-0.511-10.541-1.529-13.271c-1.02-2.729-2.429-4.822-4.225-6.273c-1.347-1.106-3.18-1.94-5.495-2.493
		c-3.077-0.727-6.583-1.094-10.524-1.094H192v17h2.602c2.165,0,3.79,0.465,4.872,1.38c1.083,0.916,1.848,2.329,2.294,4.229
		c0.244,1.036,0.382,3.881,0.416,8.529c0.036,4.648,0.522,8.304,1.46,10.965c0.695,2.039,1.685,3.681,2.97,4.925
		c0.974,0.933,2.571,1.885,4.796,2.852c-2.315,1.072-4.036,2.186-5.158,3.344c-1.123,1.159-2.082,2.921-2.877,5.288
		c-0.796,2.368-1.192,6.144-1.192,11.327c0,4.666-0.242,7.706-0.726,9.124c-0.484,1.417-1.429,2.418-2.551,3.007
		c-1.123,0.588-2.906,0.881-6.906,0.881V217h6.813C205.552,217,210.338,216.088,213.173,214.619z"/>
</g>
<g>
	<path fill="#4A2720" d="M378.577,92.387c0.385-0.188,1.256-0.387,4.437-0.387h44.093l-1.468-7.382
		c-1.22-5.894-3.164-10.018-5.951-13.254C416.433,67.598,411.432,66,404.823,66h-29.83c-10.417,0-17.446,1.872-22.236,6.66
		C347.968,77.45,346,84.385,346,94.8v44.118c0,10.421,1.969,17.997,6.754,22.777c4.786,4.791,11.818,7.304,22.239,7.304h12.784
		c3.893,0,6.086,0.409,6.506,0.619c0.326,0.659,1.717,2.486,1.717,7.402v40.61c0,5.005-1.367,6.541-1.68,7.205
		c-0.383,0.187-2.356,0.164-5.541,0.164h-44.846l1.469,7.604c1.222,5.908,3.168,10.424,5.943,13.635
		c3.248,3.771,8.252,5.762,14.873,5.762h30.583c10.414,0,18.048-2.148,22.838-6.938c4.789-4.789,7.36-12.002,7.36-22.418v-50.637
		c0-10.409-2.571-17.948-7.363-22.745c-4.793-4.787-12.426-7.263-22.836-7.263h-13.787c-3.184,0-4.054-0.339-4.437-0.526
		c-0.312-0.657-0.577-2.546-0.577-7.568V99.814C378,94.812,378.263,93.055,378.577,92.387z"/>
	<path fill="#4A2720" d="M514.115,114h-32.587c-10.415,0-18.214,1.937-23.002,6.726c-4.789,4.789-7.526,11.789-7.526,22.204v79.714
		c0,10.42,2.736,17.633,7.521,22.416c4.786,4.789,12.587,6.939,23.006,6.939h32.587c2.925,0,6.973-0.189,9.557-3.355
		c1.685-2.051,2.328-4.774,2.328-8.953V225h-36.451c-3.183,0-4.321,0.023-4.704-0.163c-0.313-0.657-0.846-2.187-0.846-7.206v-69.688
		c0-5.002,0.529-6.324,0.846-6.991c0.385-0.188,1.523,0.048,4.704,0.048H526v-15.116c0-4.171-0.643-6.678-2.326-8.738
		C520.775,113.609,515.797,114,514.115,114z"/>
	<path fill="#4A2720" d="M550.396,116.951c-2.095,2.089-3.396,5.066-3.396,9.411V252h19.756c4.348,0,7.766-0.6,9.843-2.686
		c2.096-2.088,3.401-4.799,3.401-9.146V114h-19.762C555.896,114,552.481,114.865,550.396,116.951z"/>
	<path fill="#4A2720" d="M549.885,68.656c-2.086,2.09-2.885,4.76-2.885,9.099V98h20.758c4.349,0,7.264-1.549,9.342-3.632
		c2.096-2.089,2.9-5.748,2.9-10.095V66h-20.764C554.896,66,551.985,66.559,549.885,68.656z"/>
	<path fill="#C74A1C" d="M611.223,68.65c-2.09,2.09-3.223,4.761-3.223,9.104v168.704c0,5.001-0.584,7.627-0.895,8.29
		c-0.384,0.188-1.572,1.252-4.757,1.252h-8.021c-1.687,0-6.891-0.575-9.78,2.96c-1.684,2.054-2.548,4.378-2.548,8.554V282h28.372
		c10.409,0,17.757-2.734,22.554-7.527c4.789-4.791,7.074-12.59,7.074-23V66h-19.1C616.559,66,613.314,66.559,611.223,68.65z"/>
	<path fill="#C74A1C" d="M727.688,114h-36.35c-6.615,0-11.617,1.52-14.868,5.29c-2.779,3.224-4.726,8.188-5.945,14.09l-1.468,7.62
		h50.609c3.181,0,4.712-0.236,5.097-0.047c0.316,0.677,1.237,2.008,1.237,6.99v19.02c-4-1.067-6.087-0.963-9.594-0.963H695.1
		c-10.415,0-17.498,2.007-22.289,6.795c-4.789,4.79-6.811,11.86-6.811,22.275v27.574c0,10.42,2.021,17.633,6.809,22.416
		C677.594,249.85,684.68,252,695.1,252h20.055c2.923,0,7.107-0.189,9.699-3.357c0.695-0.849,1.236-1.754,1.635-2.924
		c0.509,1.367,1.228,2.371,2.156,3.297c2.086,2.099,5.218,2.984,9.569,2.984H758V142.93c0-10.409-2.628-17.408-7.42-22.206
		C745.787,115.937,738.096,114,727.688,114z M726,225h-21.124c-4.68,0-6.558-0.189-7.01-0.42c-0.19-0.379-0.866-1.295-0.866-4.944
		v-19.553c0-5.002,0.814-7.394,1.131-8.062c0.384-0.188,1.809-1.021,4.99-1.021H726V225z"/>
	<path fill="#C74A1C" d="M853.388,116.249c-2.234,1.755-3.809,4.341-4.811,8.305l-20.53,72.006l-0.462,2.385l-0.349-1.523
		L803.854,114h-15.757c-4.95,0-7.644,1.673-9.032,3.404c-2.075,2.586-2.659,5.627-1.739,9.775L811.675,252h19.538
		c4.151,0,7.242-0.729,9.447-2.594c2.088-1.766,3.525-3.949,4.527-7.902L880.842,114h-18.045
		C858.729,114,855.65,114.472,853.388,116.249z"/>
	<path fill="#C74A1C" d="M978.135,120.724c-4.793-4.787-11.929-6.724-22.338-6.724h-36.349c-6.615,0-11.618,1.52-14.87,5.29
		c-2.777,3.224-4.723,8.188-5.945,14.09l-1.467,7.62h50.609c3.181,0,4.656-0.236,5.044-0.047c0.315,0.677,1.181,2.008,1.181,6.99
		v19.02c-2-1.067-5.977-0.963-9.484-0.963H923.21c-10.416,0-18.056,2.007-22.843,6.795c-4.789,4.79-7.367,11.86-7.367,22.275v27.574
		c0,10.42,2.578,17.633,7.363,22.416c4.783,4.789,12.426,6.939,22.847,6.939h20.053c2.923,0,7.107-0.189,9.701-3.357
		c0.694-0.849,1.236-1.754,1.633-2.924c0.511,1.367,1.228,2.371,2.157,3.297c2.087,2.099,5.217,2.984,9.57,2.984H985V142.93
		C985,132.521,982.928,125.521,978.135,120.724z M954,225h-21.014c-4.681,0-6.614-0.189-7.065-0.42
		c-0.189-0.379-0.921-1.295-0.921-4.944v-19.553c0-5.002,0.872-7.394,1.186-8.062c0.386-0.188,1.863-1.021,5.045-1.021H954V225z"/>
</g>
</svg>
